<svg width="25" height="24" xmlns="http://www.w3.org/2000/svg"><path d="M21.973 17.758c0 1.88-1.552 3.409-3.456 3.409H6.579c-1.907 0-3.456-1.53-3.456-3.41V5.993c0-1.878 1.55-3.406 3.456-3.406h11.938c1.904 0 3.456 1.528 3.456 3.406v11.766zM18.517 0H6.579C3.227 0 .5 2.69.5 5.992v11.766c0 3.306 2.727 5.992 6.079 5.992h11.938c3.351 0 6.077-2.686 6.077-5.992V5.992C24.594 2.69 21.868 0 18.517 0zm-5.97 15.408c-1.974 0-3.582-1.585-3.582-3.533s1.608-3.53 3.582-3.53c1.976 0 3.584 1.584 3.584 3.53 0 1.948-1.608 3.533-3.584 3.533m0-9.65c3.424 0 6.206 2.745 6.206 6.117s-2.785 6.117-6.206 6.117c-3.42 0-6.206-2.745-6.206-6.117S9.126 5.76 12.547 5.76zm6.406-1.63c.808 0 1.468.65 1.468 1.448a1.46 1.46 0 0 1-1.468 1.447c-.81 0-1.469-.648-1.469-1.447a1.46 1.46 0 0 1 1.47-1.448z" fill="#57696D" fill-rule="evenodd"/></svg>