<svg width="20" height="24" xmlns="http://www.w3.org/2000/svg"><path d="M17.206 2.434C15.548.864 13.253 0 10.743 0c-3.832 0-6.19 1.548-7.492 2.847C1.646 4.448.725 6.574.725 8.68c0 2.643 1.122 4.672 3.001 5.428a.99.99 0 0 0 .377.076c.396 0 .71-.255.819-.665.063-.236.21-.816.275-1.068.136-.498.025-.737-.273-1.083-.543-.635-.796-1.383-.796-2.358 0-2.898 2.188-5.976 6.244-5.976 3.218 0 5.217 1.802 5.217 4.705 0 1.831-.4 3.527-1.127 4.776-.505.867-1.393 1.902-2.757 1.902-.59 0-1.119-.239-1.453-.655-.316-.394-.42-.902-.293-1.432.143-.598.338-1.223.529-1.827.344-1.102.671-2.144.671-2.973 0-1.421-.887-2.376-2.205-2.376-1.676 0-2.989 1.677-2.989 3.82 0 1.05.283 1.835.411 2.137-.21.882-1.466 6.125-1.703 7.113-.138.578-.968 5.136.405 5.5 1.54.408 2.92-4.031 3.06-4.533.114-.409.512-1.95.755-2.9.745.707 1.943 1.185 3.11 1.185 2.198 0 4.175-.974 5.566-2.745 1.35-1.718 2.094-4.11 2.094-6.74 0-2.054-.897-4.081-2.457-5.557" fill="#57696D" fill-rule="evenodd"/></svg>