<svg width="31" height="24" xmlns="http://www.w3.org/2000/svg"><path d="M30.365 2.81c-1.091.477-2.262.8-3.493.944A6.034 6.034 0 0 0 29.546.44a12.387 12.387 0 0 1-3.866 1.456A6.106 6.106 0 0 0 21.24 0c-3.362 0-6.086 2.686-6.086 5.996 0 .47.053.929.157 1.367a17.36 17.36 0 0 1-12.54-6.267 5.88 5.88 0 0 0-.824 3.015 5.97 5.97 0 0 0 2.706 4.99 6.153 6.153 0 0 1-2.756-.751v.075c0 2.905 2.098 5.329 4.88 5.881-.51.135-1.047.21-1.603.21-.393 0-.773-.039-1.145-.11.775 2.383 3.021 4.117 5.682 4.164a12.318 12.318 0 0 1-7.556 2.564c-.492 0-.976-.03-1.452-.083a17.386 17.386 0 0 0 9.328 2.699c11.193 0 17.311-9.139 17.311-17.064l-.02-.777a12.071 12.071 0 0 0 3.043-3.099" fill="#57696d" fill-rule="evenodd"/></svg>